<mxfile host="65bd71144e">
    <diagram id="680uwpuYkj8ZMehc0VYk" name="Page-2">
        <mxGraphModel dx="1492" dy="1906" grid="1" gridSize="10" guides="1" tooltips="1" connect="1" arrows="1" fold="1" page="1" pageScale="1" pageWidth="850" pageHeight="1100" math="0" shadow="0">
            <root>
                <mxCell id="ur8WBRzY9eALHr9f39F1-0"/>
                <mxCell id="ur8WBRzY9eALHr9f39F1-1" parent="ur8WBRzY9eALHr9f39F1-0"/>
                <mxCell id="ur8WBRzY9eALHr9f39F1-2" value="&lt;div style=&quot;font-size: 12px; line-height: 19px;&quot;&gt;&lt;div style=&quot;line-height: 19px; font-size: 12px;&quot;&gt;&lt;span style=&quot;font-size: 12px;&quot;&gt;#PipelineStep&lt;/span&gt;&lt;/div&gt;&lt;/div&gt;" style="rounded=1;whiteSpace=wrap;html=1;labelBackgroundColor=none;fillColor=#fff2cc;strokeColor=#d6b656;fontColor=default;fontFamily=Helvetica;fontSize=12;" parent="ur8WBRzY9eALHr9f39F1-1" vertex="1">
                    <mxGeometry x="165" y="260" width="120" height="60" as="geometry"/>
                </mxCell>
                <mxCell id="ur8WBRzY9eALHr9f39F1-4" style="edgeStyle=none;html=1;fontColor=default;" parent="ur8WBRzY9eALHr9f39F1-1" source="ur8WBRzY9eALHr9f39F1-3" target="ur8WBRzY9eALHr9f39F1-2" edge="1">
                    <mxGeometry relative="1" as="geometry"/>
                </mxCell>
                <mxCell id="ur8WBRzY9eALHr9f39F1-21" style="edgeStyle=none;html=1;fontColor=default;dashed=1;" parent="ur8WBRzY9eALHr9f39F1-1" source="ur8WBRzY9eALHr9f39F1-3" target="ur8WBRzY9eALHr9f39F1-8" edge="1">
                    <mxGeometry relative="1" as="geometry"/>
                </mxCell>
                <mxCell id="ur8WBRzY9eALHr9f39F1-25" value="build_compute" style="edgeLabel;html=1;align=center;verticalAlign=middle;resizable=0;points=[];fontSize=12;fontFamily=Helvetica;fontColor=default;" parent="ur8WBRzY9eALHr9f39F1-21" vertex="1" connectable="0">
                    <mxGeometry x="-0.1143" y="-1" relative="1" as="geometry">
                        <mxPoint as="offset"/>
                    </mxGeometry>
                </mxCell>
                <mxCell id="ur8WBRzY9eALHr9f39F1-3" value="&lt;div style=&quot;font-size: 12px; line-height: 19px;&quot;&gt;&lt;span style=&quot;font-size: 12px;&quot;&gt;#&lt;/span&gt;&lt;span style=&quot;font-size: 12px;&quot;&gt;UpdateExternalTable&lt;/span&gt;&lt;/div&gt;" style="rounded=1;whiteSpace=wrap;html=1;labelBackgroundColor=none;fontColor=default;fontStyle=0;fontSize=12;fontFamily=Helvetica;" parent="ur8WBRzY9eALHr9f39F1-1" vertex="1">
                    <mxGeometry x="165" y="580" width="120" height="60" as="geometry"/>
                </mxCell>
                <mxCell id="ur8WBRzY9eALHr9f39F1-6" style="edgeStyle=none;html=1;fontColor=default;" parent="ur8WBRzY9eALHr9f39F1-1" source="ur8WBRzY9eALHr9f39F1-5" target="ur8WBRzY9eALHr9f39F1-2" edge="1">
                    <mxGeometry relative="1" as="geometry"/>
                </mxCell>
                <mxCell id="ur8WBRzY9eALHr9f39F1-22" style="edgeStyle=none;html=1;fontColor=default;dashed=1;" parent="ur8WBRzY9eALHr9f39F1-1" source="ur8WBRzY9eALHr9f39F1-5" target="ur8WBRzY9eALHr9f39F1-8" edge="1">
                    <mxGeometry relative="1" as="geometry"/>
                </mxCell>
                <mxCell id="ur8WBRzY9eALHr9f39F1-24" value="build_compute" style="edgeLabel;html=1;align=center;verticalAlign=middle;resizable=0;points=[];fontSize=12;fontFamily=Helvetica;fontColor=default;" parent="ur8WBRzY9eALHr9f39F1-22" vertex="1" connectable="0">
                    <mxGeometry x="-0.22" y="3" relative="1" as="geometry">
                        <mxPoint as="offset"/>
                    </mxGeometry>
                </mxCell>
                <mxCell id="ur8WBRzY9eALHr9f39F1-5" value="#DatatableTransform" style="rounded=1;whiteSpace=wrap;html=1;labelBackgroundColor=none;fontColor=default;" parent="ur8WBRzY9eALHr9f39F1-1" vertex="1">
                    <mxGeometry x="325" y="460" width="120" height="60" as="geometry"/>
                </mxCell>
                <mxCell id="ur8WBRzY9eALHr9f39F1-7" value="#ComputeStep" style="rounded=1;whiteSpace=wrap;html=1;labelBackgroundColor=none;fillColor=#fff2cc;strokeColor=#d6b656;" parent="ur8WBRzY9eALHr9f39F1-1" vertex="1">
                    <mxGeometry x="740" y="250" width="120" height="60" as="geometry"/>
                </mxCell>
                <mxCell id="ur8WBRzY9eALHr9f39F1-9" style="edgeStyle=none;html=1;fontColor=default;" parent="ur8WBRzY9eALHr9f39F1-1" source="ur8WBRzY9eALHr9f39F1-8" target="ur8WBRzY9eALHr9f39F1-7" edge="1">
                    <mxGeometry relative="1" as="geometry"/>
                </mxCell>
                <mxCell id="ur8WBRzY9eALHr9f39F1-8" value="#DatatableTransformStep" style="rounded=1;whiteSpace=wrap;html=1;labelBackgroundColor=none;fontColor=default;" parent="ur8WBRzY9eALHr9f39F1-1" vertex="1">
                    <mxGeometry x="565" y="580" width="120" height="60" as="geometry"/>
                </mxCell>
                <mxCell id="ur8WBRzY9eALHr9f39F1-11" style="edgeStyle=none;html=1;fontColor=default;" parent="ur8WBRzY9eALHr9f39F1-1" source="ur8WBRzY9eALHr9f39F1-10" target="ur8WBRzY9eALHr9f39F1-2" edge="1">
                    <mxGeometry relative="1" as="geometry"/>
                </mxCell>
                <mxCell id="ur8WBRzY9eALHr9f39F1-14" style="edgeStyle=none;html=1;fontColor=default;dashed=1;" parent="ur8WBRzY9eALHr9f39F1-1" source="ur8WBRzY9eALHr9f39F1-10" target="ur8WBRzY9eALHr9f39F1-12" edge="1">
                    <mxGeometry relative="1" as="geometry"/>
                </mxCell>
                <mxCell id="ur8WBRzY9eALHr9f39F1-27" value="build_compute" style="edgeLabel;html=1;align=center;verticalAlign=middle;resizable=0;points=[];fontSize=12;fontFamily=Helvetica;fontColor=default;" parent="ur8WBRzY9eALHr9f39F1-14" vertex="1" connectable="0">
                    <mxGeometry x="-0.0385" y="-1" relative="1" as="geometry">
                        <mxPoint as="offset"/>
                    </mxGeometry>
                </mxCell>
                <mxCell id="ur8WBRzY9eALHr9f39F1-10" value="#BatchTransform" style="rounded=1;whiteSpace=wrap;html=1;labelBackgroundColor=none;fontColor=default;" parent="ur8WBRzY9eALHr9f39F1-1" vertex="1">
                    <mxGeometry x="80" y="770" width="120" height="60" as="geometry"/>
                </mxCell>
                <mxCell id="ur8WBRzY9eALHr9f39F1-13" style="edgeStyle=none;html=1;fontColor=default;" parent="ur8WBRzY9eALHr9f39F1-1" source="2" target="ur8WBRzY9eALHr9f39F1-7" edge="1">
                    <mxGeometry relative="1" as="geometry"/>
                </mxCell>
                <mxCell id="1" style="edgeStyle=none;html=1;" edge="1" parent="ur8WBRzY9eALHr9f39F1-1" source="ur8WBRzY9eALHr9f39F1-12" target="2">
                    <mxGeometry relative="1" as="geometry"/>
                </mxCell>
                <mxCell id="ur8WBRzY9eALHr9f39F1-12" value="#BatchTransformStep" style="rounded=1;whiteSpace=wrap;html=1;labelBackgroundColor=none;fontColor=default;" parent="ur8WBRzY9eALHr9f39F1-1" vertex="1">
                    <mxGeometry x="950" y="700" width="120" height="60" as="geometry"/>
                </mxCell>
                <mxCell id="ur8WBRzY9eALHr9f39F1-17" style="edgeStyle=none;html=1;fontColor=default;" parent="ur8WBRzY9eALHr9f39F1-1" source="ur8WBRzY9eALHr9f39F1-16" target="ur8WBRzY9eALHr9f39F1-2" edge="1">
                    <mxGeometry relative="1" as="geometry"/>
                </mxCell>
                <mxCell id="ur8WBRzY9eALHr9f39F1-20" style="edgeStyle=none;html=1;fontColor=default;dashed=1;" parent="ur8WBRzY9eALHr9f39F1-1" source="ur8WBRzY9eALHr9f39F1-16" target="ur8WBRzY9eALHr9f39F1-8" edge="1">
                    <mxGeometry relative="1" as="geometry"/>
                </mxCell>
                <mxCell id="ur8WBRzY9eALHr9f39F1-26" value="build_compute" style="edgeLabel;html=1;align=center;verticalAlign=middle;resizable=0;points=[];fontSize=12;fontFamily=Helvetica;fontColor=default;" parent="ur8WBRzY9eALHr9f39F1-20" vertex="1" connectable="0">
                    <mxGeometry x="-0.2706" y="-1" relative="1" as="geometry">
                        <mxPoint as="offset"/>
                    </mxGeometry>
                </mxCell>
                <mxCell id="ur8WBRzY9eALHr9f39F1-16" value="#BatchGenerate" style="rounded=1;whiteSpace=wrap;html=1;labelBackgroundColor=none;fontColor=default;" parent="ur8WBRzY9eALHr9f39F1-1" vertex="1">
                    <mxGeometry x="325" y="640" width="120" height="60" as="geometry"/>
                </mxCell>
                <mxCell id="ur8WBRzY9eALHr9f39F1-29" style="edgeStyle=none;html=1;fontFamily=Helvetica;fontSize=12;fontColor=default;endArrow=diamond;endFill=1;strokeWidth=1;" parent="ur8WBRzY9eALHr9f39F1-1" source="ur8WBRzY9eALHr9f39F1-23" target="ur8WBRzY9eALHr9f39F1-28" edge="1">
                    <mxGeometry relative="1" as="geometry"/>
                </mxCell>
                <mxCell id="ur8WBRzY9eALHr9f39F1-30" value="meta_dbconn" style="edgeLabel;html=1;align=center;verticalAlign=middle;resizable=0;points=[];fontSize=12;fontFamily=Helvetica;fontColor=default;" parent="ur8WBRzY9eALHr9f39F1-29" vertex="1" connectable="0">
                    <mxGeometry x="0.1213" y="1" relative="1" as="geometry">
                        <mxPoint as="offset"/>
                    </mxGeometry>
                </mxCell>
                <mxCell id="ur8WBRzY9eALHr9f39F1-32" style="edgeStyle=none;html=1;fontFamily=Helvetica;fontSize=12;fontColor=default;endArrow=diamond;endFill=1;strokeWidth=1;" parent="ur8WBRzY9eALHr9f39F1-1" source="ur8WBRzY9eALHr9f39F1-23" target="ur8WBRzY9eALHr9f39F1-31" edge="1">
                    <mxGeometry relative="1" as="geometry"/>
                </mxCell>
                <mxCell id="ur8WBRzY9eALHr9f39F1-34" style="edgeStyle=none;html=1;fontFamily=Helvetica;fontSize=12;fontColor=default;endArrow=diamond;endFill=1;strokeWidth=1;" parent="ur8WBRzY9eALHr9f39F1-1" source="ur8WBRzY9eALHr9f39F1-23" target="ur8WBRzY9eALHr9f39F1-33" edge="1">
                    <mxGeometry relative="1" as="geometry"/>
                </mxCell>
                <mxCell id="ur8WBRzY9eALHr9f39F1-23" value="#DataTable" style="rounded=1;whiteSpace=wrap;html=1;labelBackgroundColor=none;fontFamily=Helvetica;fontSize=12;fontColor=default;" parent="ur8WBRzY9eALHr9f39F1-1" vertex="1">
                    <mxGeometry x="285" y="10" width="120" height="60" as="geometry"/>
                </mxCell>
                <mxCell id="ur8WBRzY9eALHr9f39F1-28" value="#DBConn" style="rounded=1;whiteSpace=wrap;html=1;labelBackgroundColor=none;fontFamily=Helvetica;fontSize=12;fontColor=default;" parent="ur8WBRzY9eALHr9f39F1-1" vertex="1">
                    <mxGeometry x="90" y="-160" width="120" height="60" as="geometry"/>
                </mxCell>
                <mxCell id="ur8WBRzY9eALHr9f39F1-35" style="edgeStyle=none;html=1;fontFamily=Helvetica;fontSize=12;fontColor=default;endArrow=diamond;endFill=1;strokeWidth=1;" parent="ur8WBRzY9eALHr9f39F1-1" source="ur8WBRzY9eALHr9f39F1-31" target="ur8WBRzY9eALHr9f39F1-28" edge="1">
                    <mxGeometry relative="1" as="geometry"/>
                </mxCell>
                <mxCell id="ur8WBRzY9eALHr9f39F1-31" value="#MetaTable" style="rounded=1;whiteSpace=wrap;html=1;labelBackgroundColor=none;fontFamily=Helvetica;fontSize=12;fontColor=default;" parent="ur8WBRzY9eALHr9f39F1-1" vertex="1">
                    <mxGeometry x="285" y="-160" width="120" height="60" as="geometry"/>
                </mxCell>
                <mxCell id="ur8WBRzY9eALHr9f39F1-33" value="#TableStore" style="rounded=1;whiteSpace=wrap;html=1;labelBackgroundColor=none;fontFamily=Helvetica;fontSize=12;fontColor=default;" parent="ur8WBRzY9eALHr9f39F1-1" vertex="1">
                    <mxGeometry x="445" y="-160" width="120" height="60" as="geometry"/>
                </mxCell>
                <mxCell id="ur8WBRzY9eALHr9f39F1-37" style="edgeStyle=none;html=1;fontFamily=Helvetica;fontSize=12;fontColor=default;endArrow=diamond;endFill=1;strokeWidth=1;" parent="ur8WBRzY9eALHr9f39F1-1" source="ur8WBRzY9eALHr9f39F1-36" target="ur8WBRzY9eALHr9f39F1-28" edge="1">
                    <mxGeometry relative="1" as="geometry"/>
                </mxCell>
                <mxCell id="ur8WBRzY9eALHr9f39F1-38" style="edgeStyle=none;html=1;fontFamily=Helvetica;fontSize=12;fontColor=default;endArrow=diamond;endFill=1;strokeWidth=1;" parent="ur8WBRzY9eALHr9f39F1-1" source="ur8WBRzY9eALHr9f39F1-36" target="ur8WBRzY9eALHr9f39F1-23" edge="1">
                    <mxGeometry relative="1" as="geometry"/>
                </mxCell>
                <mxCell id="ur8WBRzY9eALHr9f39F1-36" value="#DataStore" style="rounded=1;whiteSpace=wrap;html=1;labelBackgroundColor=none;fontFamily=Helvetica;fontSize=12;fontColor=default;" parent="ur8WBRzY9eALHr9f39F1-1" vertex="1">
                    <mxGeometry x="90" y="120" width="120" height="60" as="geometry"/>
                </mxCell>
                <mxCell id="3" style="edgeStyle=none;html=1;" edge="1" parent="ur8WBRzY9eALHr9f39F1-1" source="0" target="2">
                    <mxGeometry relative="1" as="geometry"/>
                </mxCell>
                <mxCell id="0" value="#DatatableBatchTransformStep" style="rounded=1;whiteSpace=wrap;html=1;labelBackgroundColor=none;fontColor=default;" vertex="1" parent="ur8WBRzY9eALHr9f39F1-1">
                    <mxGeometry x="720" y="640" width="195" height="60" as="geometry"/>
                </mxCell>
                <mxCell id="2" value="BaseBatchTransformStep" style="rounded=1;whiteSpace=wrap;html=1;labelBackgroundColor=none;fontColor=default;" vertex="1" parent="ur8WBRzY9eALHr9f39F1-1">
                    <mxGeometry x="840" y="370" width="195" height="60" as="geometry"/>
                </mxCell>
                <mxCell id="5" style="edgeStyle=none;html=1;dashed=1;" edge="1" parent="ur8WBRzY9eALHr9f39F1-1" source="4" target="0">
                    <mxGeometry relative="1" as="geometry"/>
                </mxCell>
                <mxCell id="6" value="build_compute" style="edgeLabel;html=1;align=center;verticalAlign=middle;resizable=0;points=[];" vertex="1" connectable="0" parent="5">
                    <mxGeometry x="0.1517" y="-2" relative="1" as="geometry">
                        <mxPoint as="offset"/>
                    </mxGeometry>
                </mxCell>
                <mxCell id="7" style="edgeStyle=none;html=1;" edge="1" parent="ur8WBRzY9eALHr9f39F1-1" source="4" target="ur8WBRzY9eALHr9f39F1-2">
                    <mxGeometry relative="1" as="geometry"/>
                </mxCell>
                <mxCell id="4" value="#DatatableBatchTransform" style="rounded=1;whiteSpace=wrap;html=1;labelBackgroundColor=none;fontColor=default;" vertex="1" parent="ur8WBRzY9eALHr9f39F1-1">
                    <mxGeometry x="20" y="660" width="160" height="60" as="geometry"/>
                </mxCell>
            </root>
        </mxGraphModel>
    </diagram>
    <diagram id="4cpcBgCK0zw-l1H84aH2" name="Page-1">
        <mxGraphModel dx="1227" dy="804" grid="1" gridSize="10" guides="1" tooltips="1" connect="1" arrows="1" fold="1" page="1" pageScale="1" pageWidth="827" pageHeight="1169" math="0" shadow="0">
            <root>
                <mxCell id="0"/>
                <mxCell id="9" value="Groups" style="locked=1;" parent="0"/>
                <mxCell id="10" value="Meta DB" style="whiteSpace=wrap;html=1;align=center;verticalAlign=top;fillColor=none;dashed=1;rounded=1;" parent="9" vertex="1">
                    <mxGeometry x="80" y="240" width="520" height="170" as="geometry"/>
                </mxCell>
                <mxCell id="19" value="Data DB" style="whiteSpace=wrap;html=1;align=center;verticalAlign=top;fillColor=none;dashed=1;rounded=1;" parent="9" vertex="1">
                    <mxGeometry x="160" y="40" width="520" height="170" as="geometry"/>
                </mxCell>
                <mxCell id="1" value="Entities" parent="0"/>
                <mxCell id="2" value="MetaStore" style="whiteSpace=wrap;html=1;rounded=1;" parent="1" vertex="1">
                    <mxGeometry x="20" y="470" width="120" height="60" as="geometry"/>
                </mxCell>
                <mxCell id="23" style="edgeStyle=orthogonalEdgeStyle;orthogonalLoop=1;jettySize=auto;html=1;entryX=0.5;entryY=1;entryDx=0;entryDy=0;exitX=0.75;exitY=0;exitDx=0;exitDy=0;curved=1;" parent="1" source="3" target="21" edge="1">
                    <mxGeometry relative="1" as="geometry"/>
                </mxCell>
                <mxCell id="28" style="edgeStyle=orthogonalEdgeStyle;curved=1;rounded=0;orthogonalLoop=1;jettySize=auto;html=1;entryX=0.25;entryY=1;entryDx=0;entryDy=0;exitX=0.25;exitY=0;exitDx=0;exitDy=0;" parent="1" source="3" target="2" edge="1">
                    <mxGeometry relative="1" as="geometry"/>
                </mxCell>
                <mxCell id="3" value="DataTable&lt;br&gt;(table1)" style="whiteSpace=wrap;html=1;rounded=1;" parent="1" vertex="1">
                    <mxGeometry x="160" y="640" width="120" height="60" as="geometry"/>
                </mxCell>
                <mxCell id="4" value="DataCatalog" style="whiteSpace=wrap;html=1;rounded=1;" parent="1" vertex="1">
                    <mxGeometry x="110" y="860" width="120" height="60" as="geometry"/>
                </mxCell>
                <mxCell id="5" value="Pipeline" style="whiteSpace=wrap;html=1;rounded=1;" parent="1" vertex="1">
                    <mxGeometry x="960" y="350" width="120" height="60" as="geometry"/>
                </mxCell>
                <mxCell id="24" style="edgeStyle=orthogonalEdgeStyle;orthogonalLoop=1;jettySize=auto;html=1;exitX=0.75;exitY=0;exitDx=0;exitDy=0;entryX=0.5;entryY=1;entryDx=0;entryDy=0;curved=1;" parent="1" source="6" target="22" edge="1">
                    <mxGeometry relative="1" as="geometry"/>
                </mxCell>
                <mxCell id="29" style="edgeStyle=orthogonalEdgeStyle;curved=1;rounded=0;orthogonalLoop=1;jettySize=auto;html=1;entryX=0.75;entryY=1;entryDx=0;entryDy=0;exitX=0.25;exitY=0;exitDx=0;exitDy=0;" parent="1" source="6" target="2" edge="1">
                    <mxGeometry relative="1" as="geometry"/>
                </mxCell>
                <mxCell id="6" value="DataTable&lt;br&gt;(table2)" style="whiteSpace=wrap;html=1;rounded=1;" parent="1" vertex="1">
                    <mxGeometry x="390" y="640" width="120" height="60" as="geometry"/>
                </mxCell>
                <mxCell id="7" value="table1_meta" style="shape=cylinder3;whiteSpace=wrap;html=1;boundedLbl=1;backgroundOutline=1;size=15;rounded=1;" parent="1" vertex="1">
                    <mxGeometry x="160" y="280" width="100" height="80" as="geometry"/>
                </mxCell>
                <mxCell id="11" value="table1_data" style="shape=cylinder3;whiteSpace=wrap;html=1;boundedLbl=1;backgroundOutline=1;size=15;rounded=1;" parent="1" vertex="1">
                    <mxGeometry x="240" y="80" width="100" height="80" as="geometry"/>
                </mxCell>
                <mxCell id="12" value="table2_meta" style="shape=cylinder3;whiteSpace=wrap;html=1;boundedLbl=1;backgroundOutline=1;size=15;rounded=1;" parent="1" vertex="1">
                    <mxGeometry x="400" y="280" width="100" height="80" as="geometry"/>
                </mxCell>
                <mxCell id="16" value="meta" style="edgeStyle=orthogonalEdgeStyle;orthogonalLoop=1;jettySize=auto;html=1;exitX=0.75;exitY=0;exitDx=0;exitDy=0;entryX=0.5;entryY=1;entryDx=0;entryDy=0;entryPerimeter=0;curved=1;" parent="1" source="2" target="12" edge="1">
                    <mxGeometry relative="1" as="geometry">
                        <mxPoint x="620" y="510" as="sourcePoint"/>
                        <mxPoint x="620" y="350" as="targetPoint"/>
                    </mxGeometry>
                </mxCell>
                <mxCell id="17" style="edgeStyle=orthogonalEdgeStyle;orthogonalLoop=1;jettySize=auto;html=1;entryX=0.5;entryY=1;entryDx=0;entryDy=0;entryPerimeter=0;curved=1;exitX=0.25;exitY=0;exitDx=0;exitDy=0;" parent="1" source="2" target="7" edge="1">
                    <mxGeometry relative="1" as="geometry">
                        <mxPoint x="70" y="500" as="sourcePoint"/>
                        <mxPoint x="70" y="340" as="targetPoint"/>
                    </mxGeometry>
                </mxCell>
                <mxCell id="18" value="meta" style="edgeLabel;html=1;align=center;verticalAlign=middle;resizable=0;points=[];rounded=1;" parent="17" vertex="1" connectable="0">
                    <mxGeometry x="-0.0125" y="1" relative="1" as="geometry">
                        <mxPoint as="offset"/>
                    </mxGeometry>
                </mxCell>
                <mxCell id="20" value="table2_data" style="shape=cylinder3;whiteSpace=wrap;html=1;boundedLbl=1;backgroundOutline=1;size=15;rounded=1;" parent="1" vertex="1">
                    <mxGeometry x="480" y="80" width="100" height="80" as="geometry"/>
                </mxCell>
                <mxCell id="25" style="edgeStyle=orthogonalEdgeStyle;orthogonalLoop=1;jettySize=auto;html=1;exitX=0.5;exitY=0;exitDx=0;exitDy=0;curved=1;" parent="1" source="21" target="11" edge="1">
                    <mxGeometry relative="1" as="geometry"/>
                </mxCell>
                <mxCell id="21" value="DataTable_SQLStore&lt;br&gt;(table1)" style="whiteSpace=wrap;html=1;rounded=1;" parent="1" vertex="1">
                    <mxGeometry x="230" y="480" width="120" height="60" as="geometry"/>
                </mxCell>
                <mxCell id="26" style="edgeStyle=orthogonalEdgeStyle;orthogonalLoop=1;jettySize=auto;html=1;exitX=0.5;exitY=0;exitDx=0;exitDy=0;curved=1;" parent="1" source="22" target="20" edge="1">
                    <mxGeometry relative="1" as="geometry"/>
                </mxCell>
                <mxCell id="22" value="DataTable_SQLStore&lt;br&gt;(table2)" style="whiteSpace=wrap;html=1;rounded=1;" parent="1" vertex="1">
                    <mxGeometry x="470" y="480" width="120" height="60" as="geometry"/>
                </mxCell>
            </root>
        </mxGraphModel>
    </diagram>
</mxfile>